<svg width="46" height="46" viewBox="0 0 46 46" fill="none" xmlns="http://www.w3.org/2000/svg">
<circle cx="23" cy="23" r="22.5" stroke="#B80000"/>
<path d="M23 20V24M23 28H23.01M21.29 14.86L12.82 29C12.6454 29.3024 12.553 29.6453 12.552 29.9945C12.551 30.3438 12.6415 30.6872 12.8144 30.9905C12.9874 31.2939 13.2367 31.5468 13.5377 31.7239C13.8387 31.901 14.1808 31.9962 14.53 32H31.47C31.8192 31.9962 32.1613 31.901 32.4623 31.7239C32.7633 31.5468 33.0126 31.2939 33.1856 30.9905C33.3585 30.6872 33.449 30.3438 33.448 29.9945C33.447 29.6453 33.3546 29.3024 33.18 29L24.71 14.86C24.5317 14.5661 24.2807 14.3231 23.9812 14.1545C23.6817 13.9859 23.3437 13.8973 23 13.8973C22.6563 13.8973 22.3183 13.9859 22.0188 14.1545C21.7193 14.3231 21.4683 14.5661 21.29 14.86Z" stroke="#B80000" stroke-width="2.5" stroke-linecap="round" stroke-linejoin="round"/>
</svg>
