<svg width="46" height="46" viewBox="0 0 46 46" fill="none" xmlns="http://www.w3.org/2000/svg">
<g clip-path="url(#clip0_1_5966)">
<path d="M21 24C21.4295 24.5742 21.9774 25.0492 22.6066 25.393C23.2357 25.7367 23.9315 25.9411 24.6467 25.9924C25.3618 26.0436 26.0796 25.9404 26.7513 25.6898C27.4231 25.4392 28.0331 25.0471 28.54 24.54L31.54 21.54C32.4508 20.597 32.9548 19.334 32.9434 18.023C32.932 16.712 32.4061 15.458 31.4791 14.5309C30.5521 13.6039 29.298 13.078 27.987 13.0667C26.676 13.0553 25.413 13.5592 24.47 14.47L22.75 16.18M25 22C24.5705 21.4259 24.0226 20.9508 23.3935 20.6071C22.7643 20.2633 22.0685 20.0589 21.3534 20.0077C20.6382 19.9565 19.9204 20.0597 19.2487 20.3102C18.5769 20.5608 17.9669 20.953 17.46 21.46L14.46 24.46C13.5492 25.403 13.0452 26.666 13.0566 27.977C13.068 29.288 13.5939 30.5421 14.5209 31.4691C15.4479 32.3962 16.702 32.922 18.013 32.9334C19.324 32.9448 20.587 32.4408 21.53 31.53L23.24 29.82" stroke="#121212" stroke-width="2.74286" stroke-linecap="round" stroke-linejoin="round"/>
</g>
<circle cx="23" cy="23" r="22.5" stroke="#121212"/>
<defs>
<clipPath id="clip0_1_5966">
<rect width="24" height="24" fill="white" transform="translate(11 11)"/>
</clipPath>
</defs>
</svg>
