<svg width="81" height="24" viewBox="0 0 81 24" fill="none" xmlns="http://www.w3.org/2000/svg">
<rect width="81" height="24" rx="12" fill="#F5F5F5"/>
<circle cx="14.2222" cy="11.2222" r="5.57222" stroke="#0923A9" stroke-width="1.3"/>
<path d="M21.5406 19.4596C21.7944 19.7134 22.206 19.7134 22.4598 19.4596C22.7137 19.2058 22.7137 18.7942 22.4598 18.5404L21.5406 19.4596ZM17.6517 15.5707L21.5406 19.4596L22.4598 18.5404L18.5709 14.6515L17.6517 15.5707Z" fill="#0923A9"/>
<path d="M30.1367 8.99219C30.125 10.8848 31.0742 12.7949 32.7148 13.5859L31.918 14.6289C30.7695 14.0488 29.9434 12.9297 29.4922 11.582C29.0293 13.0234 28.1621 14.2188 26.9492 14.8281L26.1523 13.7852C27.8574 12.9766 28.8301 10.9492 28.8359 8.99219V7.30469H30.1367V8.99219ZM33.3477 17.043V6.44922H34.6484V10.5977H36.2773V11.7109H34.6484V17.043H33.3477ZM45.0781 6.46094V9.03906H46.5664V10.1289H45.0781V12.7539H43.7773V6.46094H45.0781ZM37.1211 8.04297V7H41.9609V10.1055H38.4336V11.2422C40.2266 11.2363 41.4688 11.1836 42.9102 10.9375L43.0508 11.9688C41.4746 12.2617 40.0918 12.3145 38 12.3086H37.1328V9.12109H40.6836V8.04297H37.1211ZM38.2227 16.9141V13.2227H45.0781V16.9141H38.2227ZM39.5 15.8594H43.8008V14.2422H39.5V15.8594ZM53.75 8.61719C53.7441 9.75391 54.6055 10.8672 56.2695 11.3125L55.6836 12.3086C54.459 11.9805 53.5859 11.2773 53.1113 10.375C52.6426 11.3711 51.752 12.1445 50.5039 12.5078L49.8828 11.4766C51.5527 11.0254 52.4492 9.85938 52.4492 8.61719V8.58203H50.2344V7.55078H52.4492V6.40234H53.7617V7.55078H55.9648V8.58203H53.75V8.61719ZM50.9258 16C52.7422 15.7539 53.9199 14.957 54.1719 14.0547H51.3594V13.0117H58.4492V14.0547H55.6484C55.9004 14.9336 57.084 15.7598 58.8945 16.0117L58.4258 17.0078C56.7676 16.7734 55.5137 16.0645 54.9043 15.1035C54.2949 16.0586 53.0469 16.75 51.4062 16.9844L50.9258 16ZM56.9961 12.5195V6.44922H58.2969V8.91016H59.7734V9.98828H58.2969V12.5195H56.9961ZM69.1602 6.44922V17.043H67.8477V6.44922H69.1602ZM60.3828 14.125C63.1602 12.8066 64.4375 11.0137 64.6719 8.60547H60.9219V7.57422H65.9961C65.9961 10.7266 64.7715 13.4043 61.0625 15.168L60.3828 14.125Z" fill="#595959"/>
</svg>
