<svg width="135" height="30" viewBox="0 0 135 30" fill="none" xmlns="http://www.w3.org/2000/svg">
<path d="M123.78 0H129.212V22.7838C129.212 23.7568 129.374 24.4189 129.699 24.7703C130.023 25.0946 130.469 25.2568 131.037 25.2568C131.469 25.2568 131.915 25.2027 132.374 25.0946C132.834 24.9865 133.239 24.8514 133.591 24.6892L134.32 28.8243C133.591 29.1757 132.739 29.4459 131.766 29.6351C130.793 29.8243 129.915 29.9189 129.131 29.9189C127.428 29.9189 126.104 29.473 125.158 28.5811C124.239 27.6622 123.78 26.3649 123.78 24.6892V0Z" fill="#2546F3"/>
<path d="M111.018 30C109.396 30 107.951 29.6351 106.68 28.9054C105.41 28.1757 104.41 27.1757 103.68 25.9054V29.5946H98.937V0H104.369V12.0811C105.126 10.8108 106.113 9.81081 107.329 9.08108C108.572 8.35135 110.018 7.98649 111.667 7.98649C113.045 7.98649 114.302 8.28378 115.437 8.87838C116.572 9.44595 117.545 10.2432 118.356 11.2703C119.194 12.2973 119.829 13.473 120.261 14.7973C120.721 16.1216 120.951 17.5405 120.951 19.0541C120.951 20.5676 120.694 21.9865 120.18 23.3108C119.694 24.6351 119.005 25.8108 118.113 26.8378C117.221 27.8378 116.167 28.6216 114.951 29.1892C113.761 29.7297 112.451 30 111.018 30ZM109.518 25.3784C110.383 25.3784 111.167 25.2162 111.869 24.8919C112.599 24.5405 113.221 24.0811 113.734 23.5135C114.275 22.9459 114.68 22.2838 114.951 21.527C115.248 20.7432 115.396 19.9324 115.396 19.0946C115.396 17.9324 115.153 16.8649 114.667 15.8919C114.207 14.8919 113.559 14.0946 112.721 13.5C111.91 12.9054 110.951 12.6081 109.842 12.6081C109.059 12.6081 108.302 12.7973 107.572 13.1757C106.869 13.527 106.234 14.0135 105.667 14.6351C105.126 15.2568 104.694 15.9595 104.369 16.7432V21.8108C104.532 22.3513 104.788 22.8378 105.14 23.2703C105.518 23.7027 105.951 24.0811 106.437 24.4054C106.923 24.7027 107.423 24.9459 107.937 25.1351C108.478 25.2973 109.005 25.3784 109.518 25.3784Z" fill="#2546F3"/>
<path d="M95.0181 29.5945H89.5856V17.6756C89.5856 15.9999 89.2883 14.7701 88.6938 13.9864C88.1262 13.1755 87.3289 12.7701 86.3019 12.7701C85.2478 12.7701 84.2343 13.1891 83.2613 14.0269C82.3154 14.8377 81.6397 15.9053 81.2343 17.2296V29.5945H75.8019V17.6756C75.8019 15.9728 75.5046 14.7296 74.91 13.9458C74.3424 13.162 73.5451 12.7701 72.5181 12.7701C71.464 12.7701 70.4505 13.1755 69.4775 13.9864C68.5316 14.7972 67.8559 15.8647 67.4505 17.1891V29.5945H62.0181V8.35122H66.9235V12.2837C67.7343 10.9053 68.8154 9.85123 70.1667 9.1215C71.5181 8.36474 73.0721 7.98636 74.8289 7.98636C76.5856 7.98636 77.9505 8.41879 78.9235 9.28366C79.9235 10.1485 80.5586 11.2161 80.8289 12.4864C81.6938 11.0269 82.7883 9.91879 84.1127 9.16204C85.464 8.37825 86.9775 7.98636 88.6532 7.98636C89.9775 7.98636 91.0451 8.2296 91.8559 8.71609C92.6938 9.17555 93.3424 9.81068 93.8019 10.6215C94.2613 11.4053 94.5721 12.2972 94.7343 13.2972C94.9235 14.2972 95.0181 15.3107 95.0181 16.3377V29.5945Z" fill="#2546F3"/>
<path d="M38.0908 23.3107C38.0908 21.9323 38.4692 20.7296 39.226 19.7026C40.0097 18.6485 41.0908 17.8377 42.4692 17.2701C43.8476 16.7026 45.4287 16.4188 47.2124 16.4188C48.1043 16.4188 49.0097 16.4864 49.9287 16.6215C50.8476 16.7566 51.6449 16.9728 52.3206 17.2701V16.135C52.3206 14.7837 51.9151 13.7431 51.1043 13.0134C50.3206 12.2837 49.1449 11.9188 47.5773 11.9188C46.4151 11.9188 45.307 12.1215 44.253 12.5269C43.1989 12.9323 42.0908 13.5269 40.9287 14.3107L39.1854 10.7431C40.5908 9.8242 42.0233 9.13501 43.4827 8.67555C44.9692 8.21609 46.5233 7.98636 48.1449 7.98636C51.1719 7.98636 53.5233 8.74312 55.1989 10.2566C56.9016 11.7701 57.753 13.9323 57.753 16.7431V23.5134C57.753 24.081 57.8476 24.4864 58.0368 24.7296C58.253 24.9728 58.5908 25.1215 59.0503 25.1755V29.5945C58.5638 29.6755 58.1179 29.7431 57.7124 29.7972C57.3341 29.8512 57.0097 29.8783 56.7395 29.8783C55.6584 29.8783 54.8341 29.635 54.2665 29.1485C53.726 28.662 53.3881 28.0674 53.253 27.3647L53.1314 26.2701C52.2124 27.4593 51.0638 28.3783 49.6854 29.0269C48.307 29.6755 46.9016 29.9999 45.4692 29.9999C44.0638 29.9999 42.7935 29.7161 41.6584 29.1485C40.5503 28.5539 39.6719 27.7566 39.0233 26.7566C38.4016 25.7296 38.0908 24.581 38.0908 23.3107ZM51.307 24.4053C51.6043 24.081 51.8476 23.7566 52.0368 23.4323C52.226 23.108 52.3206 22.8107 52.3206 22.5404V20.3918C51.6719 20.1215 50.9692 19.9188 50.2124 19.7837C49.4557 19.6215 48.7395 19.5404 48.0638 19.5404C46.6584 19.5404 45.4962 19.8512 44.5773 20.4728C43.6854 21.0674 43.2395 21.8647 43.2395 22.8647C43.2395 23.4053 43.3881 23.9188 43.6854 24.4053C43.9827 24.8918 44.4151 25.2837 44.9827 25.581C45.5503 25.8783 46.226 26.0269 47.0097 26.0269C47.8205 26.0269 48.6178 25.8783 49.4016 25.581C50.1854 25.2566 50.8206 24.8647 51.307 24.4053Z" fill="#2546F3"/>
<path d="M25.9431 29.9999C24.2404 29.9999 22.6999 29.7161 21.3215 29.1485C19.9431 28.5539 18.7674 27.7566 17.7944 26.7566C16.8215 25.7296 16.0647 24.5674 15.5242 23.2701C15.0107 21.9458 14.7539 20.5539 14.7539 19.0945C14.7539 17.0674 15.1999 15.2161 16.0917 13.5404C17.0107 11.8647 18.308 10.5269 19.9836 9.5269C21.6863 8.49987 23.6863 7.98636 25.9836 7.98636C28.308 7.98636 30.2945 8.49987 31.9431 9.5269C33.5918 10.5269 34.8485 11.8647 35.7134 13.5404C36.6053 15.1891 37.0512 16.9728 37.0512 18.8918C37.0512 19.2161 37.0377 19.5539 37.0107 19.9053C36.9836 20.2296 36.9566 20.4999 36.9296 20.7161H20.5107C20.6188 21.7972 20.9296 22.7431 21.4431 23.5539C21.9836 24.3647 22.6593 24.9864 23.4701 25.4188C24.308 25.8242 25.1999 26.0269 26.1458 26.0269C27.2269 26.0269 28.2404 25.7701 29.1863 25.2566C30.1593 24.7161 30.8215 24.0134 31.1728 23.1485L35.835 24.4458C35.3215 25.5269 34.5782 26.4864 33.6053 27.3242C32.6593 28.162 31.5377 28.8242 30.2404 29.3107C28.9431 29.7701 27.5107 29.9999 25.9431 29.9999ZM20.389 17.2701H31.4972C31.389 16.1891 31.0782 15.2566 30.5647 14.4728C30.0782 13.662 29.4296 13.0404 28.6188 12.608C27.808 12.1485 26.9026 11.9188 25.9026 11.9188C24.9296 11.9188 24.0377 12.1485 23.2269 12.608C22.4431 13.0404 21.7944 13.662 21.2809 14.4728C20.7944 15.2566 20.4972 16.1891 20.389 17.2701Z" fill="#2546F3"/>
<path d="M14.3108 28.4999C13.8514 28.6891 13.2973 28.9054 12.6487 29.1486C12 29.3918 11.2973 29.581 10.5405 29.7162C9.81081 29.8783 9.06757 29.9594 8.31081 29.9594C7.31081 29.9594 6.39189 29.7837 5.55406 29.4324C4.71622 29.081 4.04054 28.527 3.52703 27.7702C3.04054 26.9864 2.7973 25.9729 2.7973 24.7297V12.527H0V8.3513H2.7973V1.45941H8.22973V8.3513H12.6892V12.527H8.22973V22.9054C8.25676 23.6351 8.45946 24.1621 8.83784 24.4864C9.21622 24.8108 9.68919 24.9729 10.2568 24.9729C10.8243 24.9729 11.3784 24.8783 11.9189 24.6891C12.4595 24.5 12.8919 24.3378 13.2162 24.2027L14.3108 28.4999Z" fill="#2546F3"/>
</svg>
