<svg width="107" height="25" viewBox="0 0 107 25" fill="none" xmlns="http://www.w3.org/2000/svg">
<path d="M12.1781 23.136C11.8155 23.2853 11.3781 23.456 10.8661 23.648C10.3541 23.84 9.79946 23.9893 9.20212 24.096C8.62612 24.224 8.03946 24.288 7.44212 24.288C6.65279 24.288 5.92746 24.1493 5.26612 23.872C4.60479 23.5947 4.07146 23.1573 3.66612 22.56C3.28212 21.9413 3.09012 21.1413 3.09012 20.16V10.528H0.882124V7.232H3.09012V1.792H7.37812V7.232H10.8981V10.528H7.37812V18.72C7.39946 19.296 7.55946 19.712 7.85812 19.968C8.15679 20.224 8.53012 20.352 8.97812 20.352C9.42612 20.352 9.86346 20.2773 10.2901 20.128C10.7168 19.9787 11.0581 19.8507 11.3141 19.744L12.1781 23.136ZM21.3599 24.32C20.0159 24.32 18.7999 24.096 17.7119 23.648C16.6239 23.1787 15.6959 22.5493 14.9279 21.76C14.1599 20.9493 13.5625 20.032 13.1359 19.008C12.7305 17.9627 12.5279 16.864 12.5279 15.712C12.5279 14.112 12.8799 12.6507 13.5839 11.328C14.3092 10.0053 15.3332 8.94933 16.6559 8.16C17.9999 7.34933 19.5785 6.944 21.3919 6.944C23.2265 6.944 24.7945 7.34933 26.0959 8.16C27.3972 8.94933 28.3892 10.0053 29.0719 11.328C29.7759 12.6293 30.1279 14.0373 30.1279 15.552C30.1279 15.808 30.1172 16.0747 30.0959 16.352C30.0745 16.608 30.0532 16.8213 30.0319 16.992H17.0719C17.1572 17.8453 17.4025 18.592 17.8079 19.232C18.2345 19.872 18.7679 20.3627 19.4079 20.704C20.0692 21.024 20.7732 21.184 21.5199 21.184C22.3732 21.184 23.1732 20.9813 23.9199 20.576C24.6879 20.1493 25.2105 19.5947 25.4879 18.912L29.1679 19.936C28.7625 20.7893 28.1759 21.5467 27.4079 22.208C26.6612 22.8693 25.7759 23.392 24.7519 23.776C23.7279 24.1387 22.5972 24.32 21.3599 24.32ZM16.9759 14.272H25.7439C25.6585 13.4187 25.4132 12.6827 25.0079 12.064C24.6239 11.424 24.1119 10.9333 23.4719 10.592C22.8319 10.2293 22.1172 10.048 21.3279 10.048C20.5599 10.048 19.8559 10.2293 19.2159 10.592C18.5972 10.9333 18.0852 11.424 17.6799 12.064C17.2959 12.6827 17.0612 13.4187 16.9759 14.272ZM30.9481 19.04C30.9481 17.952 31.2468 17.0027 31.8441 16.192C32.4628 15.36 33.3161 14.72 34.4041 14.272C35.4921 13.824 36.7401 13.6 38.1481 13.6C38.8521 13.6 39.5668 13.6533 40.2921 13.76C41.0175 13.8667 41.6468 14.0373 42.1801 14.272V13.376C42.1801 12.3093 41.8601 11.488 41.2201 10.912C40.6015 10.336 39.6735 10.048 38.4361 10.048C37.5188 10.048 36.6441 10.208 35.8121 10.528C34.9801 10.848 34.1055 11.3173 33.1881 11.936L31.8121 9.12C32.9215 8.39467 34.0521 7.85067 35.2041 7.488C36.3775 7.12533 37.6041 6.944 38.8841 6.944C41.2735 6.944 43.1295 7.54133 44.4521 8.736C45.7961 9.93067 46.4681 11.6373 46.4681 13.856V19.2C46.4681 19.648 46.5428 19.968 46.6921 20.16C46.8628 20.352 47.1295 20.4693 47.4921 20.512V24C47.1081 24.064 46.7561 24.1173 46.4361 24.16C46.1375 24.2027 45.8815 24.224 45.6681 24.224C44.8148 24.224 44.1641 24.032 43.7161 23.648C43.2895 23.264 43.0228 22.7947 42.9161 22.24L42.8201 21.376C42.0948 22.3147 41.1881 23.04 40.1001 23.552C39.0121 24.064 37.9028 24.32 36.7721 24.32C35.6628 24.32 34.6601 24.096 33.7641 23.648C32.8895 23.1787 32.1961 22.5493 31.6841 21.76C31.1935 20.9493 30.9481 20.0427 30.9481 19.04ZM41.3801 19.904C41.6148 19.648 41.8068 19.392 41.9561 19.136C42.1055 18.88 42.1801 18.6453 42.1801 18.432V16.736C41.6681 16.5227 41.1135 16.3627 40.5161 16.256C39.9188 16.128 39.3535 16.064 38.8201 16.064C37.7108 16.064 36.7935 16.3093 36.0681 16.8C35.3641 17.2693 35.0121 17.8987 35.0121 18.688C35.0121 19.1147 35.1295 19.52 35.3641 19.904C35.5988 20.288 35.9401 20.5973 36.3881 20.832C36.8361 21.0667 37.3695 21.184 37.9881 21.184C38.6281 21.184 39.2575 21.0667 39.8761 20.832C40.4948 20.576 40.9961 20.2667 41.3801 19.904ZM75.8831 24H71.5951V14.592C71.5951 13.2693 71.3605 12.2987 70.8911 11.68C70.4431 11.04 69.8138 10.72 69.0031 10.72C68.1711 10.72 67.3711 11.0507 66.6031 11.712C65.8565 12.352 65.3231 13.1947 65.0031 14.24V24H60.7151V14.592C60.7151 13.248 60.4805 12.2667 60.0111 11.648C59.5631 11.0293 58.9338 10.72 58.1231 10.72C57.2911 10.72 56.4911 11.04 55.7231 11.68C54.9765 12.32 54.4431 13.1627 54.1231 14.208V24H49.8351V7.232H53.7071V10.336C54.3471 9.248 55.2005 8.416 56.2671 7.84C57.3338 7.24267 58.5605 6.944 59.9471 6.944C61.3338 6.944 62.4111 7.28533 63.1791 7.968C63.9685 8.65067 64.4698 9.49333 64.6831 10.496C65.3658 9.344 66.2298 8.46933 67.2751 7.872C68.3418 7.25333 69.5365 6.944 70.8591 6.944C71.9045 6.944 72.7471 7.136 73.3871 7.52C74.0485 7.88267 74.5605 8.384 74.9231 9.024C75.2858 9.64267 75.5311 10.3467 75.6591 11.136C75.8085 11.9253 75.8831 12.7253 75.8831 13.536V24ZM88.5124 24.32C87.2324 24.32 86.091 24.032 85.0884 23.456C84.0857 22.88 83.2964 22.0907 82.7204 21.088V24H78.9764V0.639999H83.2644V10.176C83.8617 9.17333 84.6404 8.384 85.6004 7.808C86.5817 7.232 87.723 6.944 89.0244 6.944C90.1124 6.944 91.1044 7.17867 92.0004 7.648C92.8964 8.096 93.6644 8.72533 94.3044 9.536C94.9657 10.3467 95.467 11.2747 95.8084 12.32C96.171 13.3653 96.3524 14.4853 96.3524 15.68C96.3524 16.8747 96.1497 17.9947 95.7444 19.04C95.3604 20.0853 94.8164 21.0133 94.1124 21.824C93.4084 22.6133 92.5764 23.232 91.6164 23.68C90.6777 24.1067 89.643 24.32 88.5124 24.32ZM87.3284 20.672C88.011 20.672 88.6297 20.544 89.1844 20.288C89.7604 20.0107 90.251 19.648 90.6564 19.2C91.083 18.752 91.403 18.2293 91.6164 17.632C91.851 17.0133 91.9684 16.3733 91.9684 15.712C91.9684 14.7947 91.7764 13.952 91.3924 13.184C91.0297 12.3947 90.5177 11.7653 89.8564 11.296C89.2164 10.8267 88.459 10.592 87.5844 10.592C86.9657 10.592 86.3684 10.7413 85.7924 11.04C85.2377 11.3173 84.7364 11.7013 84.2884 12.192C83.8617 12.6827 83.5204 13.2373 83.2644 13.856V17.856C83.3924 18.2827 83.595 18.6667 83.8724 19.008C84.171 19.3493 84.5124 19.648 84.8964 19.904C85.2804 20.1387 85.675 20.3307 86.0804 20.48C86.507 20.608 86.923 20.672 87.3284 20.672ZM98.5856 0.639999H102.874V18.624C102.874 19.392 103.002 19.9147 103.258 20.192C103.514 20.448 103.866 20.576 104.314 20.576C104.655 20.576 105.007 20.5333 105.37 20.448C105.732 20.3627 106.052 20.256 106.33 20.128L106.906 23.392C106.33 23.6693 105.658 23.8827 104.89 24.032C104.122 24.1813 103.428 24.256 102.81 24.256C101.466 24.256 100.42 23.904 99.6736 23.2C98.9483 22.4747 98.5856 21.4507 98.5856 20.128V0.639999Z" fill="#2546F3"/>
</svg>
