<svg width="23" height="23" viewBox="0 0 23 23" fill="none" xmlns="http://www.w3.org/2000/svg">
<circle cx="11.3137" cy="11.3137" r="8" fill="#0923A9"/>
<path d="M6.08224 11.159C6.08224 11.0209 6.11676 10.8952 6.18582 10.782C6.25763 10.666 6.35016 10.5735 6.46341 10.5044C6.57666 10.4353 6.69957 10.4008 6.83216 10.4008H10.7185L10.7143 6.51864C10.7143 6.38606 10.7489 6.26314 10.8179 6.1499C10.887 6.03665 10.9781 5.9455 11.0914 5.87644C11.2074 5.80463 11.3344 5.76872 11.4725 5.76872C11.6051 5.76872 11.728 5.80325 11.8413 5.8723C11.9601 5.94135 12.0526 6.03389 12.1189 6.1499C12.1907 6.26591 12.228 6.38882 12.2307 6.51864L12.2266 10.4008L16.1088 10.405C16.2414 10.405 16.3629 10.4381 16.4734 10.5044C16.5894 10.5707 16.6806 10.6618 16.7468 10.7779C16.8187 10.8939 16.8532 11.0195 16.8504 11.1549C16.8559 11.293 16.8228 11.4201 16.751 11.5361C16.6819 11.6493 16.5908 11.7405 16.4775 11.8095C16.3643 11.8786 16.24 11.9117 16.1046 11.9089L12.2307 11.9131L12.2225 15.7911C12.2252 15.9265 12.1921 16.0508 12.123 16.164C12.054 16.2773 11.9614 16.3698 11.8454 16.4416C11.7322 16.5107 11.6065 16.5424 11.4684 16.5369C11.3331 16.5397 11.206 16.5065 11.0872 16.4375C10.974 16.3684 10.8828 16.2773 10.8138 16.164C10.7475 16.0535 10.7157 15.9306 10.7185 15.7953L10.7143 11.9131L6.83216 11.9172C6.70233 11.9145 6.57804 11.8786 6.45927 11.8095C6.34602 11.7405 6.25349 11.6479 6.18167 11.5319C6.11538 11.4159 6.08224 11.2916 6.08224 11.159Z" fill="white" style="mix-blend-mode:luminosity"/>
<path d="M6.08224 11.159C6.08224 11.0209 6.11676 10.8952 6.18582 10.782C6.25763 10.666 6.35016 10.5735 6.46341 10.5044C6.57666 10.4353 6.69957 10.4008 6.83216 10.4008H10.7185L10.7143 6.51864C10.7143 6.38606 10.7489 6.26314 10.8179 6.1499C10.887 6.03665 10.9781 5.9455 11.0914 5.87644C11.2074 5.80463 11.3344 5.76872 11.4725 5.76872C11.6051 5.76872 11.728 5.80325 11.8413 5.8723C11.9601 5.94135 12.0526 6.03389 12.1189 6.1499C12.1907 6.26591 12.228 6.38882 12.2307 6.51864L12.2266 10.4008L16.1088 10.405C16.2414 10.405 16.3629 10.4381 16.4734 10.5044C16.5894 10.5707 16.6806 10.6618 16.7468 10.7779C16.8187 10.8939 16.8532 11.0195 16.8504 11.1549C16.8559 11.293 16.8228 11.4201 16.751 11.5361C16.6819 11.6493 16.5908 11.7405 16.4775 11.8095C16.3643 11.8786 16.24 11.9117 16.1046 11.9089L12.2307 11.9131L12.2225 15.7911C12.2252 15.9265 12.1921 16.0508 12.123 16.164C12.054 16.2773 11.9614 16.3698 11.8454 16.4416C11.7322 16.5107 11.6065 16.5424 11.4684 16.5369C11.3331 16.5397 11.206 16.5065 11.0872 16.4375C10.974 16.3684 10.8828 16.2773 10.8138 16.164C10.7475 16.0535 10.7157 15.9306 10.7185 15.7953L10.7143 11.9131L6.83216 11.9172C6.70233 11.9145 6.57804 11.8786 6.45927 11.8095C6.34602 11.7405 6.25349 11.6479 6.18167 11.5319C6.11538 11.4159 6.08224 11.2916 6.08224 11.159Z" fill="#3D3D3D" style="mix-blend-mode:overlay"/>
</svg>
