<svg width="16" height="16" viewBox="0 0 16 16" fill="none" xmlns="http://www.w3.org/2000/svg">
<circle cx="8" cy="8" r="8" fill="#0923A9"/>
<path d="M4.17969 5.05664C4.08594 4.96289 4.02148 4.84961 3.98633 4.7168C3.95508 4.58398 3.95508 4.45117 3.98633 4.31836C4.01758 4.18164 4.08398 4.0625 4.18555 3.96094C4.2832 3.86328 4.39844 3.79883 4.53125 3.76758C4.66797 3.73242 4.80273 3.73242 4.93555 3.76758C5.07227 3.79883 5.1875 3.86133 5.28125 3.95508L11.8203 10.4941C11.918 10.5918 11.9824 10.707 12.0137 10.8398C12.0449 10.9727 12.043 11.1074 12.0078 11.2441C11.9766 11.377 11.9102 11.4922 11.8086 11.5898C11.7109 11.6914 11.5957 11.7598 11.4629 11.7949C11.3301 11.8262 11.1973 11.8262 11.0645 11.7949C10.9316 11.7598 10.8164 11.6953 10.7188 11.6016L4.17969 5.05664ZM4.17969 10.5L10.7188 3.96094C10.8164 3.86328 10.9316 3.79883 11.0645 3.76758C11.1973 3.73242 11.3301 3.73242 11.4629 3.76758C11.5957 3.79883 11.7109 3.86523 11.8086 3.9668C11.9102 4.06445 11.9766 4.18164 12.0078 4.31836C12.043 4.45117 12.0449 4.58398 12.0137 4.7168C11.9824 4.84961 11.918 4.96484 11.8203 5.0625L5.28125 11.6016C5.1875 11.6953 5.07227 11.7598 4.93555 11.7949C4.80273 11.8262 4.66797 11.8262 4.53125 11.7949C4.39844 11.7598 4.2832 11.6934 4.18555 11.5957C4.08398 11.4941 4.01758 11.377 3.98633 11.2441C3.95508 11.1074 3.95508 10.9727 3.98633 10.8398C4.02148 10.707 4.08594 10.5938 4.17969 10.5Z" fill="white" style="mix-blend-mode:luminosity"/>
<path d="M4.17969 5.05664C4.08594 4.96289 4.02148 4.84961 3.98633 4.7168C3.95508 4.58398 3.95508 4.45117 3.98633 4.31836C4.01758 4.18164 4.08398 4.0625 4.18555 3.96094C4.2832 3.86328 4.39844 3.79883 4.53125 3.76758C4.66797 3.73242 4.80273 3.73242 4.93555 3.76758C5.07227 3.79883 5.1875 3.86133 5.28125 3.95508L11.8203 10.4941C11.918 10.5918 11.9824 10.707 12.0137 10.8398C12.0449 10.9727 12.043 11.1074 12.0078 11.2441C11.9766 11.377 11.9102 11.4922 11.8086 11.5898C11.7109 11.6914 11.5957 11.7598 11.4629 11.7949C11.3301 11.8262 11.1973 11.8262 11.0645 11.7949C10.9316 11.7598 10.8164 11.6953 10.7188 11.6016L4.17969 5.05664ZM4.17969 10.5L10.7188 3.96094C10.8164 3.86328 10.9316 3.79883 11.0645 3.76758C11.1973 3.73242 11.3301 3.73242 11.4629 3.76758C11.5957 3.79883 11.7109 3.86523 11.8086 3.9668C11.9102 4.06445 11.9766 4.18164 12.0078 4.31836C12.043 4.45117 12.0449 4.58398 12.0137 4.7168C11.9824 4.84961 11.918 4.96484 11.8203 5.0625L5.28125 11.6016C5.1875 11.6953 5.07227 11.7598 4.93555 11.7949C4.80273 11.8262 4.66797 11.8262 4.53125 11.7949C4.39844 11.7598 4.2832 11.6934 4.18555 11.5957C4.08398 11.4941 4.01758 11.377 3.98633 11.2441C3.95508 11.1074 3.95508 10.9727 3.98633 10.8398C4.02148 10.707 4.08594 10.5938 4.17969 10.5Z" fill="#3D3D3D" style="mix-blend-mode:overlay"/>
</svg>
