
<svg width="45" height="56" viewBox="0 0 45 56" fill="none" xmlns="http://www.w3.org/2000/svg">
<circle cx="22" cy="19" r="18.65" stroke="#595959" stroke-width="0.7"/>
<path d="M5.64844 44.5039C5.6543 45.9746 7.56445 47.2402 9.44531 47.5039L9.07031 48.2539C7.45312 47.9844 5.84766 47.0879 5.17969 45.8105C4.51172 47.0996 2.91211 47.9844 1.28906 48.2539L0.914062 47.5039C2.79492 47.2402 4.69922 45.998 4.69922 44.5039V43.9062H5.64844V44.5039ZM0.421875 50.1758V49.4023H9.91406V50.1758H5.60156V53.9492H4.69922V50.1758H0.421875ZM15.9609 44.1641V47.0352H12.1641V48.5469C14.0156 48.541 15.3574 48.4766 16.9805 48.207L17.0742 48.9688C15.4043 49.2441 14.0098 49.3145 12.0703 49.3086H11.2617V46.3086H15.0586V44.9141H11.2383V44.1641H15.9609ZM12.1172 51.1719V50.4219H18.9375V53.9492H18.0234V51.1719H12.1172ZM18.0234 49.8711V43.543H18.9375V46.2148H20.5195V46.9883H18.9375V49.8711H18.0234ZM33.082 43.5312V53.9492H32.2031V48.4883H30.668V53.4102H29.8242V43.7656H30.668V47.7266H32.2031V43.5312H33.082ZM24.5625 51.3711V44.8086H28.4648V45.5703H25.4766V50.5859C26.9121 50.5801 27.9023 50.5273 29.0625 50.293L29.1445 51.0664C27.8906 51.3242 26.8301 51.3652 25.2305 51.3711H24.5625ZM43.1602 43.5312V53.9492H42.2344V43.5312H43.1602ZM34.6758 51.2422C37.4941 49.9062 38.9355 47.9082 39.1406 45.418H35.1562V44.668H40.0781C40.0664 47.6621 38.6719 50.3164 35.1797 51.9922L34.6758 51.2422Z" fill="#595959"/>
<mask id="path-3-inside-1_550_6278" fill="white">
<path fill-rule="evenodd" clip-rule="evenodd" d="M15.0567 26.9597C15.0836 22.5579 18.3311 19.0093 22.3601 19.0093C26.3983 19.0093 29.7025 22.5743 29.7774 26.9902C27.6088 27.9193 25.1168 28.4475 22.4631 28.4475C19.7805 28.4475 17.2553 27.9078 15.0567 26.9597Z"/>
</mask>
<path d="M15.0567 26.9597L14.2567 26.9491L14.2534 27.4823L14.7443 27.6939L15.0567 26.9597ZM29.7774 26.9902L30.0969 27.7259L30.5864 27.5162L30.5773 26.9824L29.7774 26.9902ZM15.8567 26.9703C15.8813 22.936 18.8415 19.8093 22.3658 19.8093L22.3544 18.2093C17.8208 18.2093 14.2858 22.1798 14.2567 26.9491L15.8567 26.9703ZM22.3658 19.8093C25.8981 19.8093 28.9088 22.9506 28.9775 26.9981L30.5773 26.9824C30.4961 22.198 26.8985 18.2093 22.3544 18.2093L22.3658 19.8093ZM29.4579 26.2546C27.3907 27.1402 25.0056 27.6475 22.4574 27.6475L22.4688 29.2474C25.2279 29.2474 27.8269 28.6984 30.0969 27.7259L29.4579 26.2546ZM22.4574 27.6475C19.8813 27.6475 17.4647 27.1291 15.3691 26.2255L14.7443 27.6939C17.046 28.6864 19.6796 29.2474 22.4688 29.2474L22.4574 27.6475Z" fill="#595959" mask="url(#path-3-inside-1_550_6278)"/>
<mask id="path-5-inside-2_550_6278" fill="white">
<path fill-rule="evenodd" clip-rule="evenodd" d="M30 11.4438C29.9632 15.8663 26.6821 19.439 22.64 19.439C18.6156 19.439 15.3455 15.8975 15.2807 11.5018C17.4798 10.5451 20.0123 10.0001 22.7077 10.0001C25.3483 10.0001 27.8325 10.5231 30 11.4438Z"/>
</mask>
<path d="M30 11.4438L30.8 11.4505L30.8044 10.9163L30.3128 10.7075L30 11.4438ZM15.2807 11.5018L14.9615 10.7682L14.4729 10.9808L14.4807 11.5136L15.2807 11.5018ZM29.2 11.4371C29.1663 15.4909 26.1756 18.639 22.64 18.639L22.64 20.239C27.1886 20.239 30.7601 16.2417 30.8 11.4505L29.2 11.4371ZM22.64 18.639C19.1197 18.639 16.14 15.5186 16.0806 11.49L14.4807 11.5136C14.551 16.2764 18.1114 20.239 22.64 20.239L22.64 18.639ZM15.5998 12.2354C17.6957 11.3235 20.1194 10.8001 22.7077 10.8001L22.7077 9.20007C19.9052 9.20007 17.2638 9.76661 14.9615 10.7682L15.5998 12.2354ZM22.7077 10.8001C25.2433 10.8001 27.6209 11.3024 29.6872 12.1801L30.3128 10.7075C28.044 9.74376 25.4532 9.20007 22.7077 9.20007L22.7077 10.8001Z" fill="#595959" mask="url(#path-5-inside-2_550_6278)"/>
</svg>
