<svg width="20" height="20" viewBox="0 0 20 20" fill="none" xmlns="http://www.w3.org/2000/svg">
<path d="M13.3333 16V14.6667C13.3333 13.9594 13.0524 13.2811 12.5523 12.781C12.0522 12.281 11.3739 12 10.6667 12H5.33332C4.62608 12 3.9478 12.281 3.44771 12.781C2.94761 13.2811 2.66666 13.9594 2.66666 14.6667V16M17.3333 16V14.6667C17.3329 14.0758 17.1362 13.5018 16.7742 13.0349C16.4122 12.5679 15.9054 12.2344 15.3333 12.0867M12.6667 4.08667C13.2403 4.23353 13.7487 4.56713 14.1117 5.03487C14.4748 5.50261 14.6719 6.07789 14.6719 6.67C14.6719 7.26211 14.4748 7.83739 14.1117 8.30513C13.7487 8.77287 13.2403 9.10647 12.6667 9.25333M10.6667 6.66667C10.6667 8.13943 9.47275 9.33333 7.99999 9.33333C6.52723 9.33333 5.33332 8.13943 5.33332 6.66667C5.33332 5.19391 6.52723 4 7.99999 4C9.47275 4 10.6667 5.19391 10.6667 6.66667Z" stroke="#0923A9" stroke-width="2" stroke-linecap="round" stroke-linejoin="round"/>
</svg>
